<?xml version="1.0" encoding="utf-8"?><svg viewBox="0 0 532 449" xmlns="http://www.w3.org/2000/svg" xmlns:xlink="http://www.w3.org/1999/xlink"><style>:root>svg{display:none}:root>svg:target{display:block}</style><svg fill="none" viewBox="0 0 532 449" id="antoshka" xmlns="http://www.w3.org/2000/svg"><path d="M397.5 340.5c0 58.81-59.229 107-133 107s-133-48.19-133-107 59.229-107 133-107 133 48.19 133 107z" fill="#CE7D50" stroke="#7D2002" stroke-width="3"/><path d="M347.167 349.892c-14.407 2.021-32.738-1.718-53.854-17.499 5.86-14.309 20.264-26.876 36.442-29.662 8.244-1.42 16.952-.303 25.27 4.42 8.154 4.631 16.027 12.781 22.711 25.603-5.826 7.547-16.38 15.147-30.569 17.138z" fill="#EDEBEB" stroke="#B24E28" stroke-width="3"/><circle cx="335" cy="328" r="18" fill="#7F4C34" stroke="#703E28" stroke-width="2"/><path d="M325.649 316.017c-12.948 1.975-23.328 7.708-30.942 12.792 1.532-3.397 4.373-7.422 8.306-11.349 5.535-5.527 13.023-10.648 21.444-13.344 8.4-2.689 17.703-2.962 26.984 1.139 8.127 3.591 16.365 10.592 23.998 22.523-19.236-11.658-35.913-13.878-49.79-11.761z" fill="#CF6E47" stroke="#B24E28" stroke-width="3"/><circle cx="335" cy="328" r="9" fill="#6B402C"/><path d="M219.667 349.263c-14.407 2.021-32.738-1.718-53.854-17.499 5.86-14.309 20.264-26.876 36.442-29.662 8.244-1.42 16.952-.303 25.27 4.421 8.154 4.63 16.027 12.78 22.711 25.603-5.826 7.546-16.38 15.146-30.569 17.137z" fill="#EDEBEB" stroke="#B24E28" stroke-width="3"/><circle cx="207.5" cy="327.371" r="18" fill="#7F4C34" stroke="#703E28" stroke-width="2"/><path d="M198.149 315.388c-12.948 1.975-23.328 7.709-30.942 12.792 1.532-3.397 4.373-7.422 8.306-11.349 5.535-5.527 13.023-10.648 21.444-13.344 8.4-2.689 17.703-2.962 26.984 1.139 8.127 3.591 16.365 10.592 23.998 22.523-19.236-11.658-35.913-13.877-49.79-11.761z" fill="#CF6E47" stroke="#B24E28" stroke-width="3"/><circle cx="207.5" cy="327.371" r="9" fill="#6B402C"/><mask id="aa" fill="#fff"><path fill-rule="evenodd" clip-rule="evenodd" d="M308.999 36c-14-26-39-36-39-36s-20.5 10.5-6 39.5c3.198 6.395 5.698 11.465 7.678 15.696C177.123-16.372 10.481 164.183 0 289.5c41.482 218.588 75.932 166.096 128.596 85.851C165.436 319.216 211.19 249.5 274.5 249.5c64.666 0 107.216 74.239 140.352 132.053 45.68 79.699 73.47 128.185 116.648-92.053 7.536-154.023-96.301-276.099-212.863-218.673-.682-9.982-3.067-22.625-9.638-34.827z"/></mask><path fill-rule="evenodd" clip-rule="evenodd" d="M308.999 36c-14-26-39-36-39-36s-20.5 10.5-6 39.5c3.198 6.395 5.698 11.465 7.678 15.696C177.123-16.372 10.481 164.183 0 289.5c41.482 218.588 75.932 166.096 128.596 85.851C165.436 319.216 211.19 249.5 274.5 249.5c64.666 0 107.216 74.239 140.352 132.053 45.68 79.699 73.47 128.185 116.648-92.053 7.536-154.023-96.301-276.099-212.863-218.673-.682-9.982-3.067-22.625-9.638-34.827z" fill="#E05A29"/><path d="M269.999 0l1.857-4.642-2.112-.845-2.024 1.037L269.999 0zm39 36l4.403-2.37-4.403 2.37zm-45 3.5l-4.472 2.236 4.472-2.236zm7.678 15.696l-3.018 3.987 7.547-6.106-4.529 2.12zM0 289.5l-4.983-.417-.056.68.127.669L0 289.5zm128.596 85.851l4.18 2.744-4.18-2.744zm286.256 6.202l4.338-2.487-4.338 2.487zM531.5 289.5l4.907.962.069-.356.018-.362-4.994-.244zM318.637 70.827l-4.989.34.508 7.442 6.691-3.296-2.21-4.486zM269.999 0c-1.857 4.642-1.858 4.642-1.86 4.641h-.002a.013.013 0 00-.003-.002h.001l.028.012a32.797 32.797 0 01.863.379c.634.289 1.583.74 2.776 1.367a80.815 80.815 0 019.529 5.913c7.58 5.448 16.726 13.914 23.266 26.06l8.805-4.74c-7.46-13.854-17.815-23.388-26.234-29.44a90.815 90.815 0 00-10.722-6.65 66.786 66.786 0 00-3.27-1.609 43.032 43.032 0 00-1.276-.556l-.026-.01-.01-.004-.004-.002c-.002 0-.004-.001-1.861 4.641zm-1.528 37.264c-6.648-13.298-4.929-21.449-2.491-26.048a18.137 18.137 0 014.276-5.309 15.545 15.545 0 011.604-1.199c.186-.12.323-.202.398-.244l.063-.036-.008.004-.013.007-.01.005-.005.003c-.003.002-.006.003-2.286-4.447-2.279-4.45-2.282-4.449-2.285-4.447a1.703 1.703 0 00-.058.03l-.095.05a17.353 17.353 0 00-1.127.675 25.657 25.657 0 00-2.645 1.972 28.125 28.125 0 00-6.645 8.254c-4.188 7.901-5.468 19.5 2.383 35.202l8.944-4.472zm7.735 15.813c-2.01-4.294-4.536-9.415-7.735-15.813l-8.944 4.472c3.196 6.392 5.671 11.412 7.621 15.58l9.058-4.24zM4.983 289.917c5.105-61.047 48.54-136.446 102.765-187.769 27.056-25.608 56.422-44.852 84.515-53.373 27.966-8.482 54.344-6.284 76.396 10.408l6.036-7.974C249.47 32.117 219.56 30.046 189.36 39.206c-30.073 9.121-60.752 29.43-88.486 55.679C45.52 147.276.393 224.813-4.983 289.083l9.966.834zm119.432 82.691c-13.238 20.172-25.051 38.151-36.046 50.614-5.489 6.221-10.543 10.794-15.216 13.563-4.617 2.736-8.529 3.524-12.046 2.805-3.57-.731-7.647-3.2-12.177-8.84-4.54-5.651-9.253-14.148-14.104-26.201-9.7-24.099-19.559-61.416-29.914-115.981l-9.824 1.864c10.386 54.729 20.388 92.822 30.46 117.85 5.036 12.511 10.186 22.008 15.586 28.731 5.41 6.734 11.348 11.019 17.968 12.374 6.673 1.365 13.127-.431 19.148-3.998 5.965-3.535 11.823-8.983 17.618-15.552 11.572-13.117 23.814-31.792 36.908-51.742l-8.361-5.487zM274.5 244.5c-33.613 0-62.093 18.522-86.449 43.375-24.361 24.858-45.273 56.753-63.636 84.733l8.361 5.487c18.477-28.155 38.863-59.186 62.417-83.22 23.558-24.039 49.611-40.375 79.307-40.375v-10zm144.69 134.566c-16.513-28.811-35.683-62.296-58.949-88.537-23.265-26.24-51.32-46.029-85.741-46.029v10c30.246 0 55.798 17.33 78.259 42.663 22.46 25.332 41.133 57.874 57.755 86.876l8.676-4.973zm107.403-90.528c-10.781 54.993-20.552 92.932-29.796 117.719-4.625 12.4-9.037 21.283-13.237 27.308-4.233 6.072-7.907 8.751-10.89 9.651-2.765.834-5.811.395-9.587-1.945-3.891-2.411-8.168-6.625-12.878-12.603-9.423-11.955-19.523-29.551-31.015-49.602l-8.676 4.973c11.348 19.799 21.852 38.151 31.837 50.819 4.993 6.335 10.121 11.602 15.465 14.913 5.459 3.383 11.48 4.907 17.742 3.019 6.045-1.824 11.359-6.554 16.205-13.506 4.879-6.999 9.637-16.754 14.403-29.533 9.538-25.574 19.433-64.163 30.241-119.289l-9.814-1.924zM320.847 75.312c28.2-13.893 55.387-16.832 80.2-11.322 24.858 5.52 47.671 19.599 66.896 40.284 38.505 41.429 62.278 109.053 58.563 184.982l9.988.488c3.821-78.094-20.556-148.52-61.226-192.278-20.362-21.908-44.894-37.207-72.053-43.238-27.204-6.041-56.707-2.706-86.788 12.114l4.42 8.97zm-16.25-36.941c6.134 11.392 8.402 23.284 9.051 32.797l9.977-.681c-.713-10.451-3.217-23.845-10.223-36.857l-8.805 4.74z" fill="#EFBE48" mask="url(#aa)"/><path d="M299.5 138.5c10.333-23.833 43.8-70.6 95-67m-73 67c20.167-18 75.3-47.9 134.5-23.5m-108.5 34c21.333-18.167 82.3-38.2 155.5 27m-144-18.5c31.833-9.667 105.2-9.6 144 68M370 182c26.833-5.167 89.4 2.3 125 73.5m-116-52c14.333 9.167 49.8 31.2 77 46 27.2 14.8 49 64.833 56.5 88M364 216c23 22.833 70.7 67.8 77.5 65 8.5-3.5 34.5 19 44 102.5M299.5 149c18.167 2.833 55.5 17.7 59.5 54.5M295.5 156c13.167 4.167 39 19.5 37 47.5m-48.5-46c-3.5 4.167-11.2 17.1-14 35.5m19.5-35.5c6.333 8 19 28.4 19 46m-34-47.5c-7.667 5.667-23.3 23.1-24.5 47.5m15-47.5c-11.5.833-37.9 10.3-51.5 41.5m76-59c8.833-29 18.2-92.4-15-114m9.5 99c-2.667-18.667-19.3-59.4-64.5-73m50.5 93c-1.667-18.833-23.8-57-99-59m74 64.5c-17.167-20.833-62.6-56.8-107-34m96.5 42.5c-28.833-22.167-104.8-46.1-178 35.5m131-17c-25.833-9.5-94.1-8.1-160.5 73.5M187.5 193c-43.167 4.333-136.8 38.2-166 139M171 216c-28 9.167-91.5 55.5-121.5 167.5m47.5-134C80.333 264.333 45 306 37 354m134-119c-7.833 14.5-30.6 50.1-59 76.5s-39.167 71-41 90m270.5-176c11.5 13 42 43.7 72 62.5 30 18.8 44.833 74.833 48.5 100.5" stroke="#A21D10" stroke-width="4"/><mask id="ab" fill="#fff"><path fill-rule="evenodd" clip-rule="evenodd" d="M299.946 358.46c-16.139-9.98-23.984-18.081-30.446-33.46-8.386 16.158-16.54 24.177-31.665 33.957-2.349 1.012-4.167 2.142-5.336 3.354-.505.31-1.017.623-1.537.939h.775c-.484.728-.737 1.48-.737 2.25 0 6.351 17.237 11.5 38.5 11.5s38.5-5.149 38.5-11.5c0-.77-.253-1.522-.737-2.25h.775c-.48-.274-.954-.546-1.422-.817-1.351-1.461-3.643-2.806-6.67-3.973z"/></mask><path fill-rule="evenodd" clip-rule="evenodd" d="M299.946 358.46c-16.139-9.98-23.984-18.081-30.446-33.46-8.386 16.158-16.54 24.177-31.665 33.957-2.349 1.012-4.167 2.142-5.336 3.354-.505.31-1.017.623-1.537.939h.775c-.484.728-.737 1.48-.737 2.25 0 6.351 17.237 11.5 38.5 11.5s38.5-5.149 38.5-11.5c0-.77-.253-1.522-.737-2.25h.775c-.48-.274-.954-.546-1.422-.817-1.351-1.461-3.643-2.806-6.67-3.973z" fill="#CF6E47"/><path d="M269.5 325l2.766-1.162-2.48-5.901-2.949 5.681L269.5 325zm30.446 33.46l-1.578 2.552.238.147.262.101 1.078-2.8zm-62.111.497l1.187 2.755.231-.099.21-.137-1.628-2.519zm-5.336 3.354l1.57 2.557.325-.2.265-.274-2.16-2.083zm-1.537.939l-1.558-2.564-9.158 5.564h10.716v-3zm.775 0l2.499 1.66 3.094-4.66h-5.593v3zm75.526 0v-3h-5.593l3.094 4.66 2.499-1.66zm.775 0v3h11.298l-9.81-5.605-1.488 2.605zm-1.422-.817l-2.203 2.036.309.335.394.228 1.5-2.599zm-39.882-36.271c3.335 7.935 7.083 14.121 12.154 19.625 5.047 5.479 11.299 10.166 19.48 15.225l3.156-5.103c-7.958-4.922-13.698-9.276-18.223-14.187-4.502-4.886-7.907-10.44-11.035-17.884l-5.532 2.324zm-27.271 35.314c15.487-10.013 24.035-18.399 32.7-35.094l-5.326-2.764c-8.107 15.62-15.867 23.273-30.631 32.82l3.257 5.038zm-4.804 2.918c.779-.808 2.191-1.746 4.363-2.682l-2.375-5.51c-2.524 1.088-4.748 2.41-6.307 4.027l4.319 4.165zm-2.14 1.42c.524-.318 1.04-.633 1.55-.946l-3.139-5.113c-.501.307-1.01.618-1.526.931l3.115 5.128zm-.782-5.564h-.775v6h.775v-6zM234 365.5c0-.078.018-.263.236-.59l-4.999-3.32c-.748 1.128-1.237 2.448-1.237 3.91h6zm35.5 8.5c-10.425 0-19.747-1.266-26.365-3.243-3.328-.994-5.803-2.118-7.379-3.231-1.656-1.17-1.756-1.899-1.756-2.026h-6c0 3.048 2.054 5.345 4.295 6.927 2.321 1.639 5.484 2.992 9.123 4.079 7.316 2.186 17.244 3.494 28.082 3.494v-6zm35.5-8.5c0 .127-.1.856-1.756 2.026-1.576 1.113-4.051 2.237-7.379 3.231-6.618 1.977-15.94 3.243-26.365 3.243v6c10.838 0 20.766-1.308 28.082-3.494 3.639-1.087 6.802-2.44 9.123-4.079 2.241-1.582 4.295-3.879 4.295-6.927h-6zm-.236-.59c.218.327.236.512.236.59h6c0-1.462-.489-2.782-1.237-3.91l-4.999 3.32zm3.274-4.66h-.775v6h.775v-6zm-2.922 4.782l1.434.823 2.976-5.21c-.476-.272-.946-.542-1.41-.81l-3 5.197zm-6.248-3.772c2.861 1.103 4.653 2.244 5.545 3.209l4.406-4.072c-1.809-1.958-4.602-3.506-7.794-4.736l-2.157 5.599z" fill="#B24E28" mask="url(#ab)"/><path d="M247.5 409.5c6.333-4 21-8.9 29 3.5m-10 4c-2.5-1.667-7.6-3.6-8 2" stroke="#B25530" stroke-width="3"/></svg><svg viewBox="0 0 10 10" id="blue-arrow" xmlns="http://www.w3.org/2000/svg"><path d="M1.91 1.18L3.09 0l5 5-5 5-1.18-1.18L5.731 5l-3.82-3.82z"/></svg><svg fill="none" viewBox="0 0 16 16" id="catalog-grid" xmlns="http://www.w3.org/2000/svg"><rect width="4" height="4" rx="1" fill="#fff"/><rect x="6" width="4" height="4" rx="1" fill="#fff"/><rect y="6" width="4" height="4" rx="1" fill="#fff"/><rect x="6" y="6" width="4" height="4" rx="1" fill="#fff"/><rect x="12" width="4" height="4" rx="1" fill="#fff"/><rect x="12" y="6" width="4" height="4" rx="1" fill="#fff"/><rect y="12" width="4" height="4" rx="1" fill="#fff"/><rect x="6" y="12" width="4" height="4" rx="1" fill="#fff"/><rect x="12" y="12" width="4" height="4" rx="1" fill="#fff"/></svg><svg fill="none" viewBox="0 0 218 280" id="guillotine" xmlns="http://www.w3.org/2000/svg"><path d="M96 0h119a3 3 0 013 3v274a3 3 0 01-3 3H0L96 0z" fill="#F0F4F8"/></svg><svg fill="none" viewBox="0 0 9 9" id="lang-arrow" xmlns="http://www.w3.org/2000/svg"><path d="M7.939 1.72L9 2.78l-4.5 4.5L0 2.78l1.061-1.06L4.5 5.157 7.939 1.72z" fill="#212121"/></svg><svg fill="none" viewBox="0 0 35 35" id="left-arrow" xmlns="http://www.w3.org/2000/svg"><g clip-path="url(#fclip0)"><path d="M21.105 13.043l-1.376-1.376-5.833 5.833 5.833 5.833 1.376-1.375-4.458-4.458 4.458-4.457z" fill="#fff"/></g><rect x=".5" y=".5" width="34" height="34" rx="2.5" stroke="#fff"/><defs><clipPath id="fclip0"><path fill="#fff" transform="translate(11.666 11.667)" d="M0 0h11.667v11.667H0z"/></clipPath></defs></svg><svg fill="none" viewBox="0 0 10 10" id="left-arrow-black" xmlns="http://www.w3.org/2000/svg"><path d="M8.09 1.18L6.91 0l-5 5 5 5 1.18-1.18L4.269 5l3.82-3.82z" fill="#919699"/></svg><svg fill="none" viewBox="0 0 14 19" id="location-marker" xmlns="http://www.w3.org/2000/svg"><g clip-path="url(#hclip0)"><path d="M6.28 18.617C.984 10.8 0 9.997 0 7.125 0 3.19 3.134 0 7 0s7 3.19 7 7.125c0 2.873-.983 3.675-6.28 11.492a.867.867 0 01-1.44 0zM7 10.094c1.61 0 2.917-1.33 2.917-2.969 0-1.64-1.306-2.969-2.917-2.969-1.61 0-2.917 1.33-2.917 2.969 0 1.64 1.306 2.969 2.917 2.969z" fill="#C6CACC"/></g><defs><clipPath id="hclip0"><path fill="#fff" d="M0 0h14v19H0z"/></clipPath></defs></svg><svg fill="none" viewBox="0 0 19 15" id="mail" xmlns="http://www.w3.org/2000/svg"><path d="M18.64 5.08a.223.223 0 01.36.175v7.589c0 .983-.798 1.781-1.781 1.781H1.78A1.782 1.782 0 010 12.844V5.259c0-.186.212-.29.36-.175.831.646 1.933 1.466 5.719 4.216.783.571 2.104 1.774 3.421 1.766 1.325.011 2.672-1.217 3.425-1.766 3.785-2.75 4.884-3.574 5.715-4.22zM9.5 9.875c.86.015 2.1-1.084 2.724-1.536 4.924-3.574 5.299-3.886 6.435-4.776A.888.888 0 0019 2.86v-.705c0-.983-.798-1.781-1.781-1.781H1.78C.798.375 0 1.173 0 2.156v.705c0 .275.126.531.341.702 1.136.887 1.51 1.202 6.435 4.776C7.4 8.79 8.64 9.889 9.5 9.875z" fill="#fff"/></svg><svg fill="none" viewBox="0 0 150 150" id="paperplan" xmlns="http://www.w3.org/2000/svg"><path d="M150 0L0 84.375l47.937 17.755 73.938-69.317-56.24 75.872.046.017-.056-.017V150l26.883-31.363 34.055 12.613L150 0z" fill="#C41717"/></svg><svg fill="none" viewBox="0 0 35 35" id="right-arrow" xmlns="http://www.w3.org/2000/svg"><rect x=".5" y=".5" width="34" height="34" rx="2.5" stroke="#fff"/><g clip-path="url(#kclip0)"><path d="M13.896 13.042l1.375-1.375 5.834 5.833-5.834 5.833-1.376-1.375 4.458-4.458-4.458-4.458z" fill="#fff"/></g><defs><clipPath id="kclip0"><path fill="#fff" transform="matrix(-1 0 0 1 23.334 11.667)" d="M0 0h11.667v11.667H0z"/></clipPath></defs></svg><svg fill="none" viewBox="0 0 10 10" id="right-arrow-black" xmlns="http://www.w3.org/2000/svg"><g filter="url(#lfilter0_d)" clip-path="url(#lclip0)"><path d="M1.91 1.18L3.09 0l5 5-5 5-1.18-1.18L5.731 5l-3.82-3.82z" fill="#919699"/></g><defs><clipPath id="lclip0"><path fill="#fff" transform="matrix(-1 0 0 1 10 0)" d="M0 0h10v10H0z"/></clipPath><filter id="lfilter0_d" x="-2.09" y="0" width="14.179" height="18" filterUnits="userSpaceOnUse" color-interpolation-filters="sRGB"><feFlood flood-opacity="0" result="BackgroundImageFix"/><feColorMatrix in="SourceAlpha" values="0 0 0 0 0 0 0 0 0 0 0 0 0 0 0 0 0 0 127 0"/><feOffset dy="4"/><feGaussianBlur stdDeviation="2"/><feColorMatrix values="0 0 0 0 0 0 0 0 0 0 0 0 0 0 0 0 0 0 0.25 0"/><feBlend in2="BackgroundImageFix" result="effect1_dropShadow"/><feBlend in="SourceGraphic" in2="effect1_dropShadow" result="shape"/></filter></defs></svg><svg fill="none" viewBox="0 0 18 18" id="search" xmlns="http://www.w3.org/2000/svg"><path d="M13.21 11.619a7.264 7.264 0 001.415-4.306C14.625 3.28 11.345 0 7.312 0 3.28 0 0 3.28 0 7.313c0 4.032 3.28 7.312 7.312 7.312 1.611 0 3.097-.53 4.307-1.415l4.79 4.79L18 16.41l-4.79-4.791zm-5.898.756A5.068 5.068 0 012.25 7.313 5.068 5.068 0 017.312 2.25a5.068 5.068 0 015.063 5.063 5.068 5.068 0 01-5.063 5.062z" fill="#fff"/></svg><svg fill="none" viewBox="0 0 22 19" id="shopping-cart" xmlns="http://www.w3.org/2000/svg"><path d="M20.171 11.182l1.806-7.719c.13-.557-.306-1.088-.894-1.088H6.081L5.73.712A.91.91 0 004.833 0H.917A.904.904 0 000 .89v.594c0 .492.41.891.917.891h2.669L6.269 15.12a2.067 2.067 0 00-1.075 1.802c0 1.148.958 2.078 2.14 2.078 1.18 0 2.138-.93 2.138-2.078 0-.582-.246-1.107-.642-1.485h8.007a2.043 2.043 0 00-.643 1.485c0 1.148.958 2.078 2.14 2.078 1.18 0 2.138-.93 2.138-2.078 0-.823-.492-1.534-1.206-1.87l.21-.902c.131-.557-.305-1.088-.893-1.088H8.33l-.25-1.187h11.196a.911.911 0 00.894-.693z" fill="#024178"/></svg><svg fill="none" viewBox="0 0 16 17" id="user" xmlns="http://www.w3.org/2000/svg"><g clip-path="url(#oclip0)"><path d="M7.556 8.5c2.384 0 4.317-1.903 4.317-4.25S9.94 0 7.556 0C5.17 0 3.238 1.903 3.238 4.25S5.171 8.5 7.556 8.5zm3.022 1.063h-.563a5.957 5.957 0 01-4.918 0h-.564C2.031 9.563 0 11.56 0 14.024v1.381C0 16.286.725 17 1.619 17h11.873c.894 0 1.62-.714 1.62-1.594v-1.381c0-2.464-2.031-4.463-4.534-4.463z" fill="#fff"/></g><defs><clipPath id="oclip0"><path fill="#fff" d="M0 0h15.111v17H0z"/></clipPath></defs></svg><svg fill="none" viewBox="0 0 9 7" id="white-arrow" xmlns="http://www.w3.org/2000/svg"><path d="M7.939.72L9 1.78l-4.5 4.5L0 1.78 1.061.72 4.5 4.157 7.939.72z" fill="#fff"/></svg></svg>