<?xml version="1.0" encoding="utf-8"?><svg viewBox="0 0 218 280" xmlns="http://www.w3.org/2000/svg" xmlns:xlink="http://www.w3.org/1999/xlink"><style>:root>svg{display:none}:root>svg:target{display:block}</style><svg viewBox="0 0 10 10" id="blue-arrow" xmlns="http://www.w3.org/2000/svg"><path d="M1.91 1.18L3.09 0l5 5-5 5-1.18-1.18L5.731 5l-3.82-3.82z"/></svg><svg fill="none" viewBox="0 0 16 16" id="catalog-grid" xmlns="http://www.w3.org/2000/svg"><rect width="4" height="4" rx="1" fill="#fff"/><rect x="6" width="4" height="4" rx="1" fill="#fff"/><rect y="6" width="4" height="4" rx="1" fill="#fff"/><rect x="6" y="6" width="4" height="4" rx="1" fill="#fff"/><rect x="12" width="4" height="4" rx="1" fill="#fff"/><rect x="12" y="6" width="4" height="4" rx="1" fill="#fff"/><rect y="12" width="4" height="4" rx="1" fill="#fff"/><rect x="6" y="12" width="4" height="4" rx="1" fill="#fff"/><rect x="12" y="12" width="4" height="4" rx="1" fill="#fff"/></svg><svg fill="none" viewBox="0 0 218 280" id="guillotine" xmlns="http://www.w3.org/2000/svg"><path d="M96 0h119a3 3 0 013 3v274a3 3 0 01-3 3H0L96 0z" fill="#F0F4F8"/></svg><svg fill="none" viewBox="0 0 9 9" id="lang-arrow" xmlns="http://www.w3.org/2000/svg"><path d="M7.939 1.72L9 2.78l-4.5 4.5L0 2.78l1.061-1.06L4.5 5.157 7.939 1.72z" fill="#212121"/></svg><svg fill="none" viewBox="0 0 35 35" id="left-arrow" xmlns="http://www.w3.org/2000/svg"><g clip-path="url(#eclip0)"><path d="M21.105 13.043l-1.376-1.376-5.833 5.833 5.833 5.833 1.376-1.375-4.458-4.458 4.458-4.457z" fill="#fff"/></g><rect x=".5" y=".5" width="34" height="34" rx="2.5" stroke="#fff"/><defs><clipPath id="eclip0"><path fill="#fff" transform="translate(11.666 11.667)" d="M0 0h11.667v11.667H0z"/></clipPath></defs></svg><svg fill="none" viewBox="0 0 10 10" id="left-arrow-black" xmlns="http://www.w3.org/2000/svg"><path d="M8.09 1.18L6.91 0l-5 5 5 5 1.18-1.18L4.269 5l3.82-3.82z" fill="#919699"/></svg><svg fill="none" viewBox="0 0 14 19" id="location-marker" xmlns="http://www.w3.org/2000/svg"><g clip-path="url(#gclip0)"><path d="M6.28 18.617C.984 10.8 0 9.997 0 7.125 0 3.19 3.134 0 7 0s7 3.19 7 7.125c0 2.873-.983 3.675-6.28 11.492a.867.867 0 01-1.44 0zM7 10.094c1.61 0 2.917-1.33 2.917-2.969 0-1.64-1.306-2.969-2.917-2.969-1.61 0-2.917 1.33-2.917 2.969 0 1.64 1.306 2.969 2.917 2.969z" fill="#C6CACC"/></g><defs><clipPath id="gclip0"><path fill="#fff" d="M0 0h14v19H0z"/></clipPath></defs></svg><svg fill="none" viewBox="0 0 19 15" id="mail" xmlns="http://www.w3.org/2000/svg"><path d="M18.64 5.08a.223.223 0 01.36.175v7.589c0 .983-.798 1.781-1.781 1.781H1.78A1.782 1.782 0 010 12.844V5.259c0-.186.212-.29.36-.175.831.646 1.933 1.466 5.719 4.216.783.571 2.104 1.774 3.421 1.766 1.325.011 2.672-1.217 3.425-1.766 3.785-2.75 4.884-3.574 5.715-4.22zM9.5 9.875c.86.015 2.1-1.084 2.724-1.536 4.924-3.574 5.299-3.886 6.435-4.776A.888.888 0 0019 2.86v-.705c0-.983-.798-1.781-1.781-1.781H1.78C.798.375 0 1.173 0 2.156v.705c0 .275.126.531.341.702 1.136.887 1.51 1.202 6.435 4.776C7.4 8.79 8.64 9.889 9.5 9.875z" fill="#fff"/></svg><svg fill="none" viewBox="0 0 150 150" id="paperplan" xmlns="http://www.w3.org/2000/svg"><path d="M150 0L0 84.375l47.937 17.755 73.938-69.317-56.24 75.872.046.017-.056-.017V150l26.883-31.363 34.055 12.613L150 0z" fill="#C41717"/></svg><svg fill="none" viewBox="0 0 35 35" id="right-arrow" xmlns="http://www.w3.org/2000/svg"><rect x=".5" y=".5" width="34" height="34" rx="2.5" stroke="#fff"/><g clip-path="url(#jclip0)"><path d="M13.896 13.042l1.375-1.375 5.834 5.833-5.834 5.833-1.376-1.375 4.458-4.458-4.458-4.458z" fill="#fff"/></g><defs><clipPath id="jclip0"><path fill="#fff" transform="matrix(-1 0 0 1 23.334 11.667)" d="M0 0h11.667v11.667H0z"/></clipPath></defs></svg><svg fill="none" viewBox="0 0 10 10" id="right-arrow-black" xmlns="http://www.w3.org/2000/svg"><g filter="url(#kfilter0_d)" clip-path="url(#kclip0)"><path d="M1.91 1.18L3.09 0l5 5-5 5-1.18-1.18L5.731 5l-3.82-3.82z" fill="#919699"/></g><defs><clipPath id="kclip0"><path fill="#fff" transform="matrix(-1 0 0 1 10 0)" d="M0 0h10v10H0z"/></clipPath><filter id="kfilter0_d" x="-2.09" y="0" width="14.179" height="18" filterUnits="userSpaceOnUse" color-interpolation-filters="sRGB"><feFlood flood-opacity="0" result="BackgroundImageFix"/><feColorMatrix in="SourceAlpha" values="0 0 0 0 0 0 0 0 0 0 0 0 0 0 0 0 0 0 127 0"/><feOffset dy="4"/><feGaussianBlur stdDeviation="2"/><feColorMatrix values="0 0 0 0 0 0 0 0 0 0 0 0 0 0 0 0 0 0 0.25 0"/><feBlend in2="BackgroundImageFix" result="effect1_dropShadow"/><feBlend in="SourceGraphic" in2="effect1_dropShadow" result="shape"/></filter></defs></svg><svg fill="none" viewBox="0 0 18 18" id="search" xmlns="http://www.w3.org/2000/svg"><path d="M13.21 11.619a7.264 7.264 0 001.415-4.306C14.625 3.28 11.345 0 7.312 0 3.28 0 0 3.28 0 7.313c0 4.032 3.28 7.312 7.312 7.312 1.611 0 3.097-.53 4.307-1.415l4.79 4.79L18 16.41l-4.79-4.791zm-5.898.756A5.068 5.068 0 012.25 7.313 5.068 5.068 0 017.312 2.25a5.068 5.068 0 015.063 5.063 5.068 5.068 0 01-5.063 5.062z" fill="#fff"/></svg><svg fill="none" viewBox="0 0 22 19" id="shopping-cart" xmlns="http://www.w3.org/2000/svg"><path d="M20.171 11.182l1.806-7.719c.13-.557-.306-1.088-.894-1.088H6.081L5.73.712A.91.91 0 004.833 0H.917A.904.904 0 000 .89v.594c0 .492.41.891.917.891h2.669L6.269 15.12a2.067 2.067 0 00-1.075 1.802c0 1.148.958 2.078 2.14 2.078 1.18 0 2.138-.93 2.138-2.078 0-.582-.246-1.107-.642-1.485h8.007a2.043 2.043 0 00-.643 1.485c0 1.148.958 2.078 2.14 2.078 1.18 0 2.138-.93 2.138-2.078 0-.823-.492-1.534-1.206-1.87l.21-.902c.131-.557-.305-1.088-.893-1.088H8.33l-.25-1.187h11.196a.911.911 0 00.894-.693z" fill="#024178"/></svg><svg fill="none" viewBox="0 0 16 17" id="user" xmlns="http://www.w3.org/2000/svg"><g clip-path="url(#nclip0)"><path d="M7.556 8.5c2.384 0 4.317-1.903 4.317-4.25S9.94 0 7.556 0C5.17 0 3.238 1.903 3.238 4.25S5.171 8.5 7.556 8.5zm3.022 1.063h-.563a5.957 5.957 0 01-4.918 0h-.564C2.031 9.563 0 11.56 0 14.024v1.381C0 16.286.725 17 1.619 17h11.873c.894 0 1.62-.714 1.62-1.594v-1.381c0-2.464-2.031-4.463-4.534-4.463z" fill="#fff"/></g><defs><clipPath id="nclip0"><path fill="#fff" d="M0 0h15.111v17H0z"/></clipPath></defs></svg><svg fill="none" viewBox="0 0 9 7" id="white-arrow" xmlns="http://www.w3.org/2000/svg"><path d="M7.939.72L9 1.78l-4.5 4.5L0 1.78 1.061.72 4.5 4.157 7.939.72z" fill="#fff"/></svg></svg>