<svg width="19" height="15" fill="none" xmlns="http://www.w3.org/2000/svg"><path d="M18.64 5.08a.223.223 0 01.36.175v7.589c0 .983-.798 1.781-1.781 1.781H1.78A1.782 1.782 0 010 12.844V5.259c0-.186.212-.29.36-.175.831.646 1.933 1.466 5.719 4.216.783.571 2.104 1.774 3.421 1.766 1.325.011 2.672-1.217 3.425-1.766 3.785-2.75 4.884-3.574 5.715-4.22zM9.5 9.875c.86.015 2.1-1.084 2.724-1.536 4.924-3.574 5.299-3.886 6.435-4.776A.888.888 0 0019 2.86v-.705c0-.983-.798-1.781-1.781-1.781H1.78A1.783 1.783 0 000 2.156v.705c0 .275.126.531.341.702 1.136.887 1.51 1.202 6.435 4.776C7.4 8.79 8.64 9.889 9.5 9.875z" fill="#fff"/></svg>