<svg width="16" height="17" fill="none" xmlns="http://www.w3.org/2000/svg"><g clip-path="url(#clip0)"><path d="M7.556 8.5c2.384 0 4.317-1.903 4.317-4.25S9.94 0 7.556 0C5.17 0 3.238 1.903 3.238 4.25S5.171 8.5 7.556 8.5zm3.022 1.063h-.563a5.957 5.957 0 01-4.918 0h-.564C2.031 9.563 0 11.56 0 14.024v1.381C0 16.286.725 17 1.619 17h11.873c.894 0 1.62-.714 1.62-1.594v-1.381c0-2.464-2.031-4.463-4.534-4.463z" fill="#fff"/></g><defs><clipPath id="clip0"><path fill="#fff" d="M0 0h15.111v17H0z"/></clipPath></defs></svg>