<svg width="532" height="449" viewBox="0 0 532 449" fill="none" xmlns="http://www.w3.org/2000/svg">
<path d="M397.5 340.5C397.5 399.31 338.271 447.5 264.5 447.5C190.729 447.5 131.5 399.31 131.5 340.5C131.5 281.69 190.729 233.5 264.5 233.5C338.271 233.5 397.5 281.69 397.5 340.5Z" fill="#CE7D50" stroke="#7D2002" stroke-width="3"/>
<path d="M347.167 349.892C332.76 351.913 314.429 348.174 293.313 332.393C299.173 318.084 313.577 305.517 329.755 302.731C337.999 301.311 346.707 302.428 355.025 307.151C363.179 311.782 371.052 319.932 377.736 332.754C371.91 340.301 361.356 347.901 347.167 349.892Z" fill="#EDEBEB" stroke="#B24E28" stroke-width="3"/>
<circle cx="335" cy="328" r="18" fill="#7F4C34" stroke="#703E28" stroke-width="2"/>
<path d="M325.649 316.017C312.701 317.992 302.321 323.725 294.707 328.809C296.239 325.412 299.08 321.387 303.013 317.46C308.548 311.933 316.036 306.812 324.457 304.116C332.857 301.427 342.16 301.154 351.441 305.255C359.568 308.846 367.806 315.847 375.439 327.778C356.203 316.12 339.526 313.9 325.649 316.017Z" fill="#CF6E47" stroke="#B24E28" stroke-width="3"/>
<circle cx="335" cy="328" r="9" fill="#6B402C"/>
<path d="M219.667 349.263C205.26 351.284 186.929 347.545 165.813 331.764C171.673 317.455 186.077 304.888 202.255 302.102C210.499 300.682 219.207 301.799 227.525 306.523C235.679 311.153 243.552 319.303 250.236 332.126C244.41 339.672 233.856 347.272 219.667 349.263Z" fill="#EDEBEB" stroke="#B24E28" stroke-width="3"/>
<circle cx="207.5" cy="327.371" r="18" fill="#7F4C34" stroke="#703E28" stroke-width="2"/>
<path d="M198.149 315.388C185.201 317.363 174.821 323.097 167.207 328.18C168.739 324.783 171.58 320.758 175.513 316.831C181.048 311.304 188.536 306.183 196.957 303.487C205.357 300.798 214.66 300.525 223.941 304.626C232.068 308.217 240.306 315.218 247.939 327.149C228.703 315.491 212.026 313.272 198.149 315.388Z" fill="#CF6E47" stroke="#B24E28" stroke-width="3"/>
<circle cx="207.5" cy="327.371" r="9" fill="#6B402C"/>
<mask id="path-10-inside-1" fill="white">
<path fill-rule="evenodd" clip-rule="evenodd" d="M308.999 36C294.999 10.0001 269.999 3.05176e-05 269.999 3.05176e-05C269.999 3.05176e-05 249.499 10.5 263.999 39.5C267.197 45.895 269.697 50.9655 271.677 55.1962C177.123 -16.3719 10.4811 164.183 0 289.5C41.4817 508.088 75.9316 455.596 128.596 375.351C165.436 319.216 211.19 249.5 274.5 249.5C339.166 249.5 381.716 323.739 414.852 381.553C460.532 461.252 488.322 509.738 531.5 289.5C539.036 135.477 435.199 13.4011 318.637 70.8273C317.955 60.8451 315.57 48.2023 308.999 36Z"/>
</mask>
<path fill-rule="evenodd" clip-rule="evenodd" d="M308.999 36C294.999 10.0001 269.999 3.05176e-05 269.999 3.05176e-05C269.999 3.05176e-05 249.499 10.5 263.999 39.5C267.197 45.895 269.697 50.9655 271.677 55.1962C177.123 -16.3719 10.4811 164.183 0 289.5C41.4817 508.088 75.9316 455.596 128.596 375.351C165.436 319.216 211.19 249.5 274.5 249.5C339.166 249.5 381.716 323.739 414.852 381.553C460.532 461.252 488.322 509.738 531.5 289.5C539.036 135.477 435.199 13.4011 318.637 70.8273C317.955 60.8451 315.57 48.2023 308.999 36Z" fill="#E05A29"/>
<path d="M269.999 3.05176e-05L271.856 -4.64235L269.744 -5.4871L267.72 -4.45019L269.999 3.05176e-05ZM308.999 36L313.402 33.6295L313.402 33.6295L308.999 36ZM263.999 39.5L259.527 41.7361L259.527 41.7361L263.999 39.5ZM271.677 55.1962L268.659 59.183L276.206 53.0769L271.677 55.1962ZM0 289.5L-4.9826 289.083L-5.03941 289.763L-4.91233 290.432L0 289.5ZM128.596 375.351L132.776 378.095L132.776 378.095L128.596 375.351ZM414.852 381.553L419.19 379.066L419.19 379.066L414.852 381.553ZM531.5 289.5L536.407 290.462L536.476 290.106L536.494 289.744L531.5 289.5ZM318.637 70.8273L313.648 71.1679L314.156 78.6085L320.847 75.3125L318.637 70.8273ZM269.999 3.05176e-05C268.142 4.64241 268.141 4.64181 268.139 4.64125C268.139 4.64111 268.138 4.64058 268.137 4.64031C268.136 4.63976 268.135 4.63936 268.134 4.6391C268.133 4.6386 268.133 4.63869 268.135 4.63939C268.138 4.64078 268.148 4.64459 268.163 4.65082C268.193 4.66328 268.246 4.68545 268.321 4.71751C268.471 4.78165 268.709 4.88526 269.026 5.02976C269.66 5.31887 270.609 5.77089 271.802 6.39688C274.192 7.65027 277.55 9.5927 281.331 12.3101C288.911 17.7584 298.057 26.224 304.597 38.3705L313.402 33.6295C305.942 19.7761 295.587 10.2417 287.168 4.18996C282.948 1.15737 279.181 -1.0252 276.446 -2.45932C275.078 -3.17707 273.963 -3.70943 273.176 -4.06876C272.781 -4.24848 272.469 -4.3851 272.246 -4.48015C272.134 -4.52768 272.046 -4.56483 271.98 -4.5918C271.948 -4.60528 271.921 -4.61622 271.9 -4.62463C271.89 -4.62884 271.881 -4.63242 271.874 -4.63537C271.87 -4.63685 271.867 -4.63817 271.864 -4.63933C271.862 -4.63991 271.86 -4.64067 271.86 -4.64096C271.858 -4.64167 271.856 -4.64235 269.999 3.05176e-05ZM268.471 37.264C261.823 23.9663 263.542 15.8151 265.98 11.2165C267.273 8.77687 268.926 7.03549 270.256 5.90737C270.918 5.3464 271.484 4.95022 271.86 4.70797C272.046 4.5873 272.183 4.50634 272.258 4.46358C272.295 4.44224 272.317 4.43057 272.321 4.42838C272.323 4.42729 272.32 4.42858 272.313 4.43223C272.31 4.43406 272.305 4.43647 272.3 4.43948C272.297 4.44098 272.294 4.44263 272.29 4.44442C272.288 4.44532 272.285 4.44678 272.285 4.44723C272.282 4.44872 272.279 4.45025 269.999 3.05176e-05C267.72 -4.45019 267.717 -4.44858 267.714 -4.44692C267.712 -4.44632 267.709 -4.44462 267.707 -4.4434C267.702 -4.44096 267.697 -4.43835 267.692 -4.43556C267.681 -4.42999 267.669 -4.42371 267.656 -4.41673C267.629 -4.40277 267.598 -4.38597 267.561 -4.36631C267.489 -4.327 267.397 -4.27616 267.287 -4.21352C267.069 -4.08831 266.779 -3.91537 266.434 -3.69228C265.745 -3.24704 264.823 -2.59635 263.789 -1.71982C261.729 0.0270598 259.163 2.72317 257.144 6.53355C252.956 14.435 251.676 26.0337 259.527 41.7361L268.471 37.264ZM276.206 53.0769C274.196 48.7825 271.67 43.6619 268.471 37.264L259.527 41.7361C262.723 48.1282 265.198 53.1484 267.148 57.3156L276.206 53.0769ZM4.9826 289.917C10.0883 228.87 53.5223 153.471 107.748 102.148C134.804 76.5399 164.17 57.2959 192.263 48.7754C220.229 40.2934 246.607 42.4914 268.659 59.183L274.695 51.2095C249.47 32.117 219.56 30.0463 189.36 39.2059C159.287 48.3271 128.608 68.6351 100.874 94.8848C45.5204 147.276 0.39273 224.813 -4.9826 289.083L4.9826 289.917ZM124.415 372.608C111.177 392.78 99.3639 410.759 88.3688 423.222C82.8802 429.443 77.826 434.016 73.1527 436.785C68.5356 439.521 64.6241 440.309 61.1067 439.59C57.537 438.859 53.4598 436.39 48.9299 430.75C44.3904 425.099 39.6767 416.602 34.8257 404.549C25.1269 380.45 15.2673 343.133 4.91233 288.568L-4.91233 290.432C5.47358 345.161 15.4758 383.254 25.5488 408.282C30.5838 420.793 35.7335 430.29 41.1336 437.013C46.5431 443.747 52.4816 448.032 59.1022 449.387C65.7751 450.752 72.2287 448.956 78.25 445.389C84.215 441.854 90.0727 436.406 95.8677 429.837C107.44 416.72 119.682 398.045 132.776 378.095L124.415 372.608ZM274.5 244.5C240.887 244.5 212.407 263.022 188.051 287.875C163.69 312.733 142.778 344.628 124.415 372.608L132.776 378.095C151.253 349.94 171.639 318.909 195.193 294.875C218.751 270.836 244.804 254.5 274.5 254.5V244.5ZM419.19 379.066C402.677 350.255 383.507 316.77 360.241 290.529C336.976 264.289 308.921 244.5 274.5 244.5V254.5C304.746 254.5 330.298 271.83 352.759 297.163C375.219 322.495 393.892 355.037 410.514 384.039L419.19 379.066ZM526.593 288.538C515.812 343.531 506.041 381.47 496.797 406.257C492.172 418.657 487.76 427.54 483.56 433.565C479.327 439.637 475.653 442.316 472.67 443.216C469.905 444.05 466.859 443.611 463.083 441.271C459.192 438.86 454.915 434.646 450.205 428.668C440.782 416.713 430.682 399.117 419.19 379.066L410.514 384.039C421.862 403.838 432.366 422.19 442.351 434.858C447.344 441.193 452.472 446.46 457.816 449.771C463.275 453.154 469.296 454.678 475.558 452.79C481.603 450.966 486.917 446.236 491.763 439.284C496.642 432.285 501.4 422.53 506.166 409.751C515.704 384.177 525.599 345.588 536.407 290.462L526.593 288.538ZM320.847 75.3125C349.047 61.4194 376.234 58.4796 401.047 63.9898C425.905 69.51 448.718 83.5888 467.943 104.274C506.448 145.703 530.221 213.327 526.506 289.256L536.494 289.744C540.315 211.65 515.938 141.224 475.268 97.4662C454.906 75.5579 430.374 60.2587 403.215 54.2276C376.011 48.1865 346.508 51.5222 316.427 66.3421L320.847 75.3125ZM304.597 38.3705C310.731 49.7627 312.999 61.6548 313.648 71.1679L323.625 70.4867C322.912 60.0355 320.408 46.642 313.402 33.6295L304.597 38.3705Z" fill="#EFBE48" mask="url(#path-10-inside-1)"/>
<path d="M299.5 138.5C309.833 114.667 343.3 67.9 394.5 71.5M321.5 138.5C341.667 120.5 396.8 90.6 456 115M347.5 149C368.833 130.833 429.8 110.8 503 176M359 157.5C390.833 147.833 464.2 147.9 503 225.5M370 182C396.833 176.833 459.4 184.3 495 255.5M379 203.5C393.333 212.667 428.8 234.7 456 249.5C483.2 264.3 505 314.333 512.5 337.5M364 216C387 238.833 434.7 283.8 441.5 281C450 277.5 476 300 485.5 383.5M299.5 149C317.667 151.833 355 166.7 359 203.5M295.5 156C308.667 160.167 334.5 175.5 332.5 203.5M284 157.5C280.5 161.667 272.8 174.6 270 193M289.5 157.5C295.833 165.5 308.5 185.9 308.5 203.5M274.5 156C266.833 161.667 251.2 179.1 250 203.5M265 156C253.5 156.833 227.1 166.3 213.5 197.5M289.5 138.5C298.333 109.5 307.7 46.1 274.5 24.5M284 123.5C281.333 104.833 264.7 64.1 219.5 50.5M270 143.5C268.333 124.667 246.2 86.5 171 84.5M245 149C227.833 128.167 182.4 92.2 138 115M234.5 157.5C205.667 135.333 129.7 111.4 56.5 193M187.5 176C161.667 166.5 93.4 167.9 27 249.5M187.5 193C144.333 197.333 50.7 231.2 21.5 332M171 216C143 225.167 79.5 271.5 49.5 383.5M97 249.5C80.3333 264.333 45 306 37 354M171 235C163.167 249.5 140.4 285.1 112 311.5C83.6 337.9 72.8333 382.5 71 401.5M341.5 225.5C353 238.5 383.5 269.2 413.5 288C443.5 306.8 458.333 362.833 462 388.5" stroke="#A21D10" stroke-width="4"/>
<mask id="path-13-inside-2" fill="white">
<path fill-rule="evenodd" clip-rule="evenodd" d="M299.946 358.46C283.807 348.48 275.962 340.379 269.5 325C261.114 341.158 252.96 349.177 237.835 358.957C235.486 359.969 233.668 361.099 232.499 362.311C231.994 362.621 231.482 362.934 230.962 363.25H231.737C231.253 363.978 231 364.73 231 365.5C231 371.851 248.237 377 269.5 377C290.763 377 308 371.851 308 365.5C308 364.73 307.747 363.978 307.263 363.25H308.038C307.558 362.976 307.084 362.704 306.616 362.433C305.265 360.972 302.973 359.627 299.946 358.46Z"/>
</mask>
<path fill-rule="evenodd" clip-rule="evenodd" d="M299.946 358.46C283.807 348.48 275.962 340.379 269.5 325C261.114 341.158 252.96 349.177 237.835 358.957C235.486 359.969 233.668 361.099 232.499 362.311C231.994 362.621 231.482 362.934 230.962 363.25H231.737C231.253 363.978 231 364.73 231 365.5C231 371.851 248.237 377 269.5 377C290.763 377 308 371.851 308 365.5C308 364.73 307.747 363.978 307.263 363.25H308.038C307.558 362.976 307.084 362.704 306.616 362.433C305.265 360.972 302.973 359.627 299.946 358.46Z" fill="#CF6E47"/>
<path d="M269.5 325L272.266 323.838L269.786 317.937L266.837 323.618L269.5 325ZM299.946 358.46L298.368 361.012L298.606 361.159L298.868 361.26L299.946 358.46ZM237.835 358.957L239.022 361.712L239.253 361.613L239.463 361.476L237.835 358.957ZM232.499 362.311L234.069 364.868L234.394 364.668L234.659 364.394L232.499 362.311ZM230.962 363.25L229.404 360.686L220.246 366.25H230.962V363.25ZM231.737 363.25L234.236 364.91L237.33 360.25H231.737V363.25ZM307.263 363.25V360.25H301.67L304.764 364.91L307.263 363.25ZM308.038 363.25V366.25H319.336L309.526 360.645L308.038 363.25ZM306.616 362.433L304.413 364.469L304.722 364.804L305.116 365.032L306.616 362.433ZM266.734 326.162C270.069 334.097 273.817 340.283 278.888 345.787C283.935 351.266 290.187 355.953 298.368 361.012L301.524 355.909C293.566 350.987 287.826 346.633 283.301 341.722C278.799 336.836 275.394 331.282 272.266 323.838L266.734 326.162ZM239.463 361.476C254.95 351.463 263.498 343.077 272.163 326.382L266.837 323.618C258.73 339.238 250.97 346.891 236.206 356.438L239.463 361.476ZM234.659 364.394C235.438 363.586 236.85 362.648 239.022 361.712L236.647 356.202C234.123 357.29 231.899 358.612 230.34 360.229L234.659 364.394ZM232.519 365.814C233.043 365.496 233.559 365.181 234.069 364.868L230.93 359.755C230.429 360.062 229.92 360.373 229.404 360.686L232.519 365.814ZM231.737 360.25H230.962V366.25H231.737V360.25ZM234 365.5C234 365.422 234.018 365.237 234.236 364.91L229.237 361.59C228.489 362.718 228 364.038 228 365.5H234ZM269.5 374C259.075 374 249.753 372.734 243.135 370.757C239.807 369.763 237.332 368.639 235.756 367.526C234.1 366.356 234 365.627 234 365.5H228C228 368.548 230.054 370.845 232.295 372.427C234.616 374.066 237.779 375.419 241.418 376.506C248.734 378.692 258.662 380 269.5 380V374ZM305 365.5C305 365.627 304.9 366.356 303.244 367.526C301.668 368.639 299.193 369.763 295.865 370.757C289.247 372.734 279.925 374 269.5 374V380C280.338 380 290.266 378.692 297.582 376.506C301.221 375.419 304.384 374.066 306.705 372.427C308.946 370.845 311 368.548 311 365.5H305ZM304.764 364.91C304.982 365.237 305 365.422 305 365.5H311C311 364.038 310.511 362.718 309.763 361.59L304.764 364.91ZM308.038 360.25H307.263V366.25H308.038V360.25ZM305.116 365.032C305.588 365.304 306.066 365.578 306.55 365.855L309.526 360.645C309.05 360.373 308.58 360.103 308.116 359.835L305.116 365.032ZM298.868 361.26C301.729 362.363 303.521 363.504 304.413 364.469L308.819 360.397C307.01 358.439 304.217 356.891 301.025 355.661L298.868 361.26Z" fill="#B24E28" mask="url(#path-13-inside-2)"/>
<path d="M247.5 409.5C253.833 405.5 268.5 400.6 276.5 413M266.5 417C264 415.333 258.9 413.4 258.5 419" stroke="#B25530" stroke-width="3"/>
</svg>
