<svg width="19" height="15" viewBox="0 0 19 15" fill="none" xmlns="http://www.w3.org/2000/svg">
<path d="M18.64 5.08047C18.7848 4.96543 19 5.07305 19 5.25488V12.8438C19 13.8271 18.2021 14.625 17.2188 14.625H1.78125C0.797852 14.625 0 13.8271 0 12.8438V5.25859C0 5.07305 0.211523 4.96914 0.359961 5.08418C1.19121 5.72988 2.29336 6.55 6.07852 9.2998C6.86152 9.87129 8.18262 11.0736 9.5 11.0662C10.8248 11.0773 12.1719 9.84902 12.9252 9.2998C16.7104 6.55 17.8088 5.72617 18.64 5.08047ZM9.5 9.875C10.3609 9.88984 11.6004 8.79141 12.2238 8.33867C17.1482 4.76504 17.523 4.45332 18.6586 3.5627C18.8738 3.3957 19 3.13594 19 2.86133V2.15625C19 1.17285 18.2021 0.375 17.2188 0.375H1.78125C0.797852 0.375 0 1.17285 0 2.15625V2.86133C0 3.13594 0.126172 3.39199 0.341406 3.5627C1.47695 4.44961 1.85176 4.76504 6.77617 8.33867C7.39961 8.79141 8.63906 9.88984 9.5 9.875Z" fill="white"/>
</svg>
