<svg width="46" height="46" viewBox="0 0 46 46" fill="none" xmlns="http://www.w3.org/2000/svg">
<path d="M17.6992 5.39062H36.1172C36.8603 5.39062 37.4648 5.99518 37.4648 6.73828V9.43359C37.4648 10.1779 38.0682 10.7812 38.8125 10.7812C39.5568 10.7812 40.1602 10.1779 40.1602 9.43359V6.73828C40.1602 4.50899 38.3465 2.69531 36.1172 2.69531H17.6992C16.9561 2.69531 16.3516 2.09075 16.3516 1.34766C16.3516 0.603391 15.7482 0 15.0039 0C14.2596 0 13.6562 0.603391 13.6562 1.34766C13.6562 3.57695 15.4699 5.39062 17.6992 5.39062Z" fill="#D4E9FB"/>
<path d="M12.3086 10.7812H26.2344C26.9786 10.7812 27.582 10.1779 27.582 9.43359C27.582 8.68933 26.9786 8.08594 26.2344 8.08594H12.3086C11.5655 8.08594 10.9609 7.48138 10.9609 6.73828C10.9609 5.99402 10.3575 5.39062 9.61328 5.39062C8.86902 5.39062 8.26562 5.99402 8.26562 6.73828C8.26562 8.96757 10.0793 10.7812 12.3086 10.7812Z" fill="#D4E9FB"/>
<path d="M15.0039 17.6992H1.34766C0.603391 17.6992 0 18.3026 0 19.0469V44.6523C0 45.3966 0.603391 46 1.34766 46H4.13281V37.4648C4.13281 36.7206 4.7362 36.1172 5.48047 36.1172H10.8711C11.6154 36.1172 12.2188 36.7206 12.2188 37.4648V46H16.3516V19.0469C16.3516 18.3026 15.7482 17.6992 15.0039 17.6992ZM6.82812 32.0742C6.82812 32.8185 6.22473 33.4219 5.48047 33.4219C4.7362 33.4219 4.13281 32.8185 4.13281 32.0742V30.2773C4.13281 29.5331 4.7362 28.9297 5.48047 28.9297C6.22473 28.9297 6.82812 29.5331 6.82812 30.2773V32.0742ZM6.82812 24.8867C6.82812 25.631 6.22473 26.2344 5.48047 26.2344C4.7362 26.2344 4.13281 25.631 4.13281 24.8867V23.0898C4.13281 22.3456 4.7362 21.7422 5.48047 21.7422C6.22473 21.7422 6.82812 22.3456 6.82812 23.0898V24.8867ZM12.2188 32.0742C12.2188 32.8185 11.6154 33.4219 10.8711 33.4219C10.1268 33.4219 9.52344 32.8185 9.52344 32.0742V30.2773C9.52344 29.5331 10.1268 28.9297 10.8711 28.9297C11.6154 28.9297 12.2188 29.5331 12.2188 30.2773V32.0742ZM12.2188 24.8867C12.2188 25.631 11.6154 26.2344 10.8711 26.2344C10.1268 26.2344 9.52344 25.631 9.52344 24.8867V23.0898C9.52344 22.3456 10.1268 21.7422 10.8711 21.7422C11.6154 21.7422 12.2188 22.3456 12.2188 23.0898V24.8867Z" fill="#D4E9FB"/>
<path d="M6.82812 38.8125H9.52344V46H6.82812V38.8125Z" fill="#D4E9FB"/>
<path d="M27.8066 12.7578H24.6621C23.9824 12.7578 23.4091 13.2639 23.3249 13.9384L21.844 25.7852H30.6248L29.1439 13.9384C29.0596 13.2639 28.4863 12.7578 27.8066 12.7578Z" fill="#D4E9FB"/>
<path d="M35.903 13.9384L34.4221 25.7852H43.2029L41.722 13.9384C41.6377 13.2639 41.0644 12.7578 40.3848 12.7578H37.2402C36.5606 12.7578 35.9873 13.2639 35.903 13.9384Z" fill="#D4E9FB"/>
<path d="M44.6523 28.4805H19.0469V46H24.8867V39.2617C24.8867 38.5175 25.4901 37.9141 26.2344 37.9141H38.8125C39.5568 37.9141 40.1602 38.5175 40.1602 39.2617V46H44.6523C45.3966 46 46 45.3966 46 44.6523V29.8281C46 29.0839 45.3966 28.4805 44.6523 28.4805ZM26.2344 35.2188H24.4375C23.6932 35.2188 23.0898 34.6154 23.0898 33.8711C23.0898 33.1268 23.6932 32.5234 24.4375 32.5234H26.2344C26.9786 32.5234 27.582 33.1268 27.582 33.8711C27.582 34.6154 26.9786 35.2188 26.2344 35.2188ZM33.4219 35.2188H31.625C30.8807 35.2188 30.2773 34.6154 30.2773 33.8711C30.2773 33.1268 30.8807 32.5234 31.625 32.5234H33.4219C34.1661 32.5234 34.7695 33.1268 34.7695 33.8711C34.7695 34.6154 34.1661 35.2188 33.4219 35.2188ZM40.6094 35.2188H38.8125C38.0682 35.2188 37.4648 34.6154 37.4648 33.8711C37.4648 33.1268 38.0682 32.5234 38.8125 32.5234H40.6094C41.3536 32.5234 41.957 33.1268 41.957 33.8711C41.957 34.6154 41.3536 35.2188 40.6094 35.2188Z" fill="#D4E9FB"/>
<path d="M27.582 40.6094H37.4648V46H27.582V40.6094Z" fill="#D4E9FB"/>
</svg>
