<svg width="46" height="46" viewBox="0 0 46 46" fill="none" xmlns="http://www.w3.org/2000/svg">
<path d="M35.588 22.1989H45.7294L43.9529 13.6708C43.8227 13.0457 43.2717 12.5983 42.6333 12.5983H27.0233L35.588 22.1989Z" fill="#D4E9FB"/>
<path d="M18.9511 12.5979H3.36668C2.7283 12.5979 2.17731 13.0457 2.0471 13.6708L0.270584 22.1989H10.3138L18.9511 12.5979Z" fill="#D4E9FB"/>
<path d="M23 20.2104C22.257 20.2104 21.6523 20.8151 21.6523 21.5581C21.6523 22.3011 22.257 22.9054 23 22.9054C23.743 22.9054 24.3477 22.3011 24.3477 21.5581C24.3477 20.8147 23.743 20.2104 23 20.2104Z" fill="#D4E9FB"/>
<path d="M21.6015 38.5437H24.2968V46H21.6015V38.5437Z" fill="#D4E9FB"/>
<path d="M34.984 24.8943C34.6 24.8943 34.234 24.7304 33.9785 24.4437L24.3477 13.6473V6.73819H30.4749C31.1726 6.73819 31.6039 5.978 31.246 5.3789L30.0454 3.36962L31.246 1.36034C31.6039 0.761244 31.1726 0.0010529 30.4749 0.0010529H23.0161C23.0109 0.000701931 23.0056 0 23 0C22.2556 0 21.6523 0.60331 21.6523 1.34771V13.6252L11.9162 24.4479C11.6604 24.7322 11.2964 24.8943 10.9143 24.8943H0V44.6523C0 45.3967 0.603287 46 1.34766 46H18.9061V37.196C18.9061 36.452 19.5094 35.8483 20.2538 35.8483H25.6444C26.3888 35.8483 26.9921 36.452 26.9921 37.196V46H44.6523C45.3967 46 46 45.3967 46 44.6523V24.8943H34.984ZM8.21404 38.993C8.21404 39.7374 7.61075 40.3407 6.86638 40.3407C6.12236 40.3407 5.51872 39.7374 5.51872 38.993V37.196C5.51872 36.452 6.12236 35.8483 6.86638 35.8483C7.61075 35.8483 8.21404 36.452 8.21404 37.196V38.993ZM8.21404 31.8055C8.21404 32.5499 7.61075 33.1533 6.86638 33.1533C6.12236 33.1533 5.51872 32.5499 5.51872 31.8055V30.0086C5.51872 29.2646 6.12236 28.6609 6.86638 28.6609C7.61075 28.6609 8.21404 29.2646 8.21404 30.0086V31.8055ZM13.6047 38.993C13.6047 39.7374 13.0014 40.3407 12.257 40.3407C11.513 40.3407 10.9093 39.7374 10.9093 38.993V37.196C10.9093 36.452 11.513 35.8483 12.257 35.8483C13.0014 35.8483 13.6047 36.452 13.6047 37.196V38.993ZM13.6047 31.8055C13.6047 32.5499 13.0014 33.1533 12.257 33.1533C11.513 33.1533 10.9093 32.5499 10.9093 31.8055V30.0086C10.9093 29.2646 11.513 28.6609 12.257 28.6609C13.0014 28.6609 13.6047 29.2646 13.6047 30.0086V31.8055ZM21.585 31.8055C21.585 32.5499 20.9817 33.1533 20.2373 33.1533C19.4929 33.1533 18.8896 32.5499 18.8896 31.8055V30.0086C18.8896 29.2646 19.4929 28.6609 20.2373 28.6609C20.9817 28.6609 21.585 29.2646 21.585 30.0086V31.8055ZM18.957 21.5577C18.957 19.3284 20.7708 17.5149 23 17.5149C25.2292 17.5149 27.043 19.3284 27.043 21.5577C27.043 23.7874 25.2292 25.6008 23 25.6008C20.7708 25.6008 18.957 23.7874 18.957 21.5577ZM27.1104 31.8055C27.1104 32.5499 26.5071 33.1533 25.7627 33.1533C25.0183 33.1533 24.415 32.5499 24.415 31.8055V30.0086C24.415 29.2646 25.0183 28.6609 25.7627 28.6609C26.5071 28.6609 27.1104 29.2646 27.1104 30.0086V31.8055ZM34.7537 38.993C34.7537 39.7374 34.1501 40.3407 33.4061 40.3407C32.6617 40.3407 32.0584 39.7374 32.0584 38.993V37.196C32.0584 36.452 32.6617 35.8483 33.4061 35.8483C34.1501 35.8483 34.7537 36.452 34.7537 37.196V38.993ZM34.7537 31.8055C34.7537 32.5499 34.1501 33.1533 33.4061 33.1533C32.6617 33.1533 32.0584 32.5499 32.0584 31.8055V30.0086C32.0584 29.2646 32.6617 28.6609 33.4061 28.6609C34.1501 28.6609 34.7537 29.2646 34.7537 30.0086V31.8055ZM40.1444 38.993C40.1444 39.7374 39.5407 40.3407 38.7967 40.3407C38.0523 40.3407 37.4491 39.7374 37.4491 38.993V37.196C37.4491 36.452 38.0523 35.8483 38.7967 35.8483C39.5407 35.8483 40.1444 36.452 40.1444 37.196V38.993ZM40.1444 31.8055C40.1444 32.5499 39.5407 33.1533 38.7967 33.1533C38.0523 33.1533 37.4491 32.5499 37.4491 31.8055V30.0086C37.4491 29.2646 38.0523 28.6609 38.7967 28.6609C39.5407 28.6609 40.1444 29.2646 40.1444 30.0086V31.8055Z" fill="#D4E9FB"/>
</svg>
