<svg width="46" height="46" viewBox="0 0 46 46" fill="none" xmlns="http://www.w3.org/2000/svg">
<path d="M45.379 15.1072L23.8165 0.253C23.3258 -0.0843333 22.678 -0.0843333 22.1854 0.253L0.622917 15.1072C0.231917 15.3755 0 15.8183 0 16.2917V44.0833C0 45.1413 0.858667 46 1.91667 46H5.75V23C5.75 21.942 6.60867 21.0833 7.66667 21.0833H38.3333C39.3913 21.0833 40.25 21.942 40.25 23V46H44.0833C45.1413 46 46 45.1413 46 44.0833V16.2917C46 15.8183 45.7681 15.3755 45.379 15.1072Z" fill="#D4E9FB"/>
<path d="M17.7292 36.4167V37.8542C17.7292 38.6477 17.0852 39.2917 16.2917 39.2917C15.4982 39.2917 14.8542 38.6477 14.8542 37.8542V36.4167H11.5C10.971 36.4167 10.5417 36.846 10.5417 37.375V45.0417C10.5417 45.5707 10.971 46 11.5 46H21.0833C21.6123 46 22.0417 45.5707 22.0417 45.0417V37.375C22.0417 36.846 21.6123 36.4167 21.0833 36.4167H17.7292Z" fill="#D4E9FB"/>
<path d="M31.1458 36.4167V37.8542C31.1458 38.6477 30.5018 39.2917 29.7083 39.2917C28.9148 39.2917 28.2708 38.6477 28.2708 37.8542V36.4167H24.9167C24.3877 36.4167 23.9583 36.846 23.9583 37.375V45.0417C23.9583 45.5707 24.3877 46 24.9167 46H34.5C35.029 46 35.4583 45.5707 35.4583 45.0417V37.375C35.4583 36.846 35.029 36.4167 34.5 36.4167H31.1458Z" fill="#D4E9FB"/>
<path d="M24.4375 24.9167V26.3542C24.4375 27.1477 23.7935 27.7917 23 27.7917C22.2065 27.7917 21.5625 27.1477 21.5625 26.3542V24.9167H18.2083C17.6793 24.9167 17.25 25.346 17.25 25.875V33.5417C17.25 34.0707 17.6793 34.5 18.2083 34.5H27.7917C28.3207 34.5 28.75 34.0707 28.75 33.5417V25.875C28.75 25.346 28.3207 24.9167 27.7917 24.9167H24.4375Z" fill="#D4E9FB"/>
</svg>
