<svg width="22" height="19" fill="none" xmlns="http://www.w3.org/2000/svg"><path d="M20.171 11.182l1.806-7.719c.13-.557-.306-1.088-.894-1.088H6.081L5.73.712A.91.91 0 004.833 0H.917A.904.904 0 000 .89v.594c0 .492.41.891.917.891h2.669L6.269 15.12a2.067 2.067 0 00-1.075 1.802c0 1.148.958 2.078 2.14 2.078 1.18 0 2.138-.93 2.138-2.078 0-.582-.246-1.107-.642-1.485h8.007a2.043 2.043 0 00-.643 1.485c0 1.148.958 2.078 2.14 2.078 1.18 0 2.138-.93 2.138-2.078 0-.823-.492-1.534-1.206-1.87l.21-.902c.131-.557-.305-1.088-.893-1.088H8.33l-.25-1.187h11.196a.911.911 0 00.894-.693z" fill="#024178"/></svg>