<svg width="46" height="46" fill="none" xmlns="http://www.w3.org/2000/svg"><path d="M17.7 5.39h18.417a1.35 1.35 0 011.348 1.348v2.696a1.348 1.348 0 002.695 0V6.738a4.048 4.048 0 00-4.043-4.043H17.7a1.35 1.35 0 01-1.347-1.347 1.348 1.348 0 00-2.696 0A4.048 4.048 0 0017.7 5.39zm-5.391 5.391h13.925a1.348 1.348 0 000-2.695H12.31a1.35 1.35 0 01-1.348-1.348 1.348 1.348 0 00-2.695 0 4.048 4.048 0 004.043 4.043zm2.695 6.919H1.348C.603 17.7 0 18.302 0 19.046v25.605C0 45.397.603 46 1.348 46h2.785v-8.535c0-.744.603-1.348 1.347-1.348h5.391c.744 0 1.348.604 1.348 1.348V46h4.133V19.047c0-.744-.604-1.348-1.348-1.348zM6.828 32.073a1.348 1.348 0 01-2.695 0v-1.797a1.348 1.348 0 012.695 0v1.797zm0-7.187a1.348 1.348 0 01-2.695 0V23.09a1.348 1.348 0 012.695 0v1.797zm5.39 7.187a1.348 1.348 0 01-2.695 0v-1.797a1.348 1.348 0 012.696 0v1.797zm0-7.187a1.348 1.348 0 01-2.695 0V23.09a1.348 1.348 0 012.696 0v1.797z" fill="#D4E9FB"/><path d="M6.828 38.813h2.695V46H6.828v-7.188zm20.979-26.055h-3.145c-.68 0-1.253.506-1.337 1.18l-1.481 11.847h8.78l-1.48-11.847a1.348 1.348 0 00-1.337-1.18zm8.096 1.18l-1.48 11.847h8.78l-1.481-11.847a1.348 1.348 0 00-1.337-1.18H37.24c-.68 0-1.253.506-1.337 1.18zm8.749 14.542H19.047V46h5.84v-6.738c0-.745.603-1.348 1.347-1.348h12.578c.745 0 1.348.603 1.348 1.348V46h4.492c.745 0 1.348-.603 1.348-1.348V29.828c0-.744-.603-1.348-1.348-1.348zm-18.418 6.74h-1.797a1.348 1.348 0 010-2.696h1.797a1.348 1.348 0 010 2.696zm7.188 0h-1.797a1.348 1.348 0 010-2.696h1.797a1.348 1.348 0 010 2.696zm7.187 0h-1.797a1.348 1.348 0 010-2.696h1.797a1.348 1.348 0 010 2.696z" fill="#D4E9FB"/><path d="M27.582 40.61h9.883V46h-9.883v-5.39z" fill="#D4E9FB"/></svg>