<svg width="46" height="46" fill="none" xmlns="http://www.w3.org/2000/svg"><path d="M35.588 22.199h10.141l-1.776-8.528a1.347 1.347 0 00-1.32-1.073h-15.61l8.565 9.6zm-16.637-9.601H3.367c-.639 0-1.19.448-1.32 1.073L.271 22.199h10.043l8.637-9.601zM23 20.21a1.35 1.35 0 00-1.348 1.348 1.349 1.349 0 002.695 0A1.35 1.35 0 0023 20.21zm-1.398 18.334h2.695V46h-2.695v-7.456z" fill="#D4E9FB"/><path d="M34.984 24.894a1.35 1.35 0 01-1.006-.45l-9.63-10.797V6.738h6.127a.898.898 0 00.771-1.36l-1.2-2.008 1.2-2.01a.898.898 0 00-.771-1.359h-7.459L23 0c-.744 0-1.348.603-1.348 1.348v12.277l-9.736 10.823c-.256.284-.62.446-1.002.446H0v19.758C0 45.397.603 46 1.348 46h17.558v-8.804c0-.744.603-1.348 1.348-1.348h5.39c.745 0 1.348.604 1.348 1.348V46h17.66c.745 0 1.348-.603 1.348-1.348V24.894H34.984zM8.214 38.993a1.348 1.348 0 11-2.695 0v-1.797a1.348 1.348 0 012.695 0v1.797zm0-7.188a1.348 1.348 0 11-2.695 0V30.01a1.348 1.348 0 012.695 0v1.796zm5.39 7.188a1.348 1.348 0 11-2.695 0v-1.797a1.348 1.348 0 012.696 0v1.797zm0-7.188a1.348 1.348 0 11-2.695 0V30.01a1.348 1.348 0 012.696 0v1.796zm7.981 0a1.348 1.348 0 11-2.695 0V30.01a1.348 1.348 0 012.695 0v1.796zm-2.628-10.247A4.047 4.047 0 0123 17.515a4.047 4.047 0 014.043 4.043A4.047 4.047 0 0123 25.6a4.047 4.047 0 01-4.043-4.043zm8.153 10.247a1.348 1.348 0 11-2.695 0V30.01a1.348 1.348 0 012.695 0v1.796zm7.644 7.188a1.348 1.348 0 01-2.696 0v-1.797a1.348 1.348 0 012.696 0v1.797zm0-7.188a1.348 1.348 0 01-2.696 0V30.01a1.348 1.348 0 012.696 0v1.796zm5.39 7.188a1.348 1.348 0 01-2.695 0v-1.797a1.348 1.348 0 012.695 0v1.797zm0-7.188a1.348 1.348 0 01-2.695 0V30.01a1.348 1.348 0 012.695 0v1.796z" fill="#D4E9FB"/></svg>