<svg width="46" height="46" fill="none" xmlns="http://www.w3.org/2000/svg"><path d="M45.379 15.107L23.817.253a1.441 1.441 0 00-1.632 0L.623 15.107A1.435 1.435 0 000 16.292v27.791C0 45.141.859 46 1.917 46H5.75V23c0-1.058.859-1.917 1.917-1.917h30.666c1.058 0 1.917.859 1.917 1.917v23h3.833A1.917 1.917 0 0046 44.083V16.292c0-.474-.232-.917-.621-1.185z" fill="#D4E9FB"/><path d="M17.73 36.417v1.437a1.438 1.438 0 01-2.876 0v-1.437H11.5a.959.959 0 00-.958.958v7.667c0 .529.429.958.958.958h9.583c.53 0 .959-.43.959-.958v-7.667a.959.959 0 00-.959-.958H17.73zm13.416 0v1.437a1.438 1.438 0 01-2.875 0v-1.437h-3.354a.959.959 0 00-.959.958v7.667c0 .529.43.958.959.958H34.5c.529 0 .958-.43.958-.958v-7.667a.959.959 0 00-.958-.958h-3.354zm-6.708-11.5v1.437a1.438 1.438 0 01-2.875 0v-1.437h-3.355a.959.959 0 00-.958.958v7.667c0 .529.43.958.958.958h9.584c.529 0 .958-.43.958-.958v-7.667a.959.959 0 00-.958-.958h-3.355z" fill="#D4E9FB"/></svg>